<?xml version="1.0" encoding="UTF-8"?>
<svg viewBox="0 0 1800 1100" xmlns="http://www.w3.org/2000/svg" font-family="Arial, sans-serif">
  <!-- ======================================================= -->
  <!-- Schéma zapojenia: Detektor plynu a dymu ESP32 v2.1     -->
  <!-- KĽÚČOVÉ PRAVIDLÁ:                                       -->
  <!--  - Žiadne káble sa nekrížia                             -->
  <!--  - Každý elektrický spoj = plný čierny krúžok (r=6)    -->
  <!--  - ČERVENÁ = +5V, ČIERNA (hrubá) = GND, MODRÁ = signál -->
  <!-- ======================================================= -->

  <defs>
    <!-- GND symbol (trojuholník smerom dole) -->
    <symbol id="gnd" viewBox="-15 0 30 20" overflow="visible">
      <line x1="0" y1="-10" x2="0" y2="0" stroke="#000" stroke-width="3"/>
      <polygon points="-10,0 10,0 0,12" fill="#000"/>
      <text x="0" y="25" text-anchor="middle" font-size="11" fill="#000">GND</text>
    </symbol>
    <!-- +5V symbol (červený pruh smerom hore) -->
    <symbol id="vcc" viewBox="-20 -20 40 20" overflow="visible">
      <line x1="0" y1="-15" x2="0" y2="0" stroke="#d32f2f" stroke-width="3"/>
      <line x1="-10" y1="-15" x2="10" y2="-15" stroke="#d32f2f" stroke-width="3"/>
      <text x="0" y="-20" text-anchor="middle" font-size="13" font-weight="bold" fill="#d32f2f">+5V</text>
    </symbol>
  </defs>

  <!-- Pozadie -->
  <rect width="1800" height="1100" fill="#ffffff"/>

  <!-- Titulok -->
  <text x="900" y="32" text-anchor="middle" font-size="22" font-weight="bold" fill="#222">
    Detektor plynu a dymu ESP32 — Schéma zapojenia v2.1
  </text>
  <text x="900" y="52" text-anchor="middle" font-size="13" fill="#666">
    Káble sa nekrížia. Každý spoj je vyznačený plným krúžkom.
  </text>

  <!-- ================= LEGENDA (vpravo hore) ================= -->
  <g transform="translate(1540, 75)">
    <rect x="0" y="0" width="240" height="135" fill="#fafafa" stroke="#666" stroke-width="1"/>
    <text x="10" y="20" font-size="13" font-weight="bold">Legenda</text>
    <line x1="10" y1="40" x2="45" y2="40" stroke="#d32f2f" stroke-width="3"/>
    <text x="55" y="44" font-size="12">+5V (napájanie, červená)</text>
    <line x1="10" y1="60" x2="45" y2="60" stroke="#000" stroke-width="3"/>
    <text x="55" y="64" font-size="12">GND (zem, čierna)</text>
    <line x1="10" y1="80" x2="45" y2="80" stroke="#1976d2" stroke-width="2.5"/>
    <text x="55" y="84" font-size="12">Signál (GPIO, modrá)</text>
    <circle cx="27" cy="102" r="6" fill="#000"/>
    <text x="55" y="106" font-size="12">Spoj (junction dot)</text>
    <text x="10" y="126" font-size="11" fill="#666">Kábel bez bodky = len prechádza</text>
  </g>

  <!-- ================================================================= -->
  <!-- MQ-2 SENZOR (dym) — vľavo hore                                    -->
  <!-- ================================================================= -->
  <g id="mq2">
    <!-- Telo modulu -->
    <rect x="100" y="200" width="150" height="80" fill="#e3f2fd" stroke="#000" stroke-width="1.5"/>
    <text x="175" y="232" text-anchor="middle" font-size="15" font-weight="bold">MQ-2</text>
    <text x="175" y="252" text-anchor="middle" font-size="12">(dym)</text>
    <!-- Pin labels -->
    <text x="175" y="195" text-anchor="middle" font-size="10" fill="#444">VCC</text>
    <text x="175" y="295" text-anchor="middle" font-size="10" fill="#444">GND</text>
    <text x="265" y="243" text-anchor="start" font-size="10" fill="#444">AO</text>
  </g>
  <!-- VCC wire MQ-2: od pinu hore k +5V štítku -->
  <line x1="175" y1="200" x2="175" y2="170" stroke="#d32f2f" stroke-width="3"/>
  <use href="#vcc" x="175" y="170"/>
  <!-- GND wire MQ-2: od pinu dole -->
  <line x1="175" y1="280" x2="175" y2="310" stroke="#000" stroke-width="3"/>
  <use href="#gnd" x="175" y="310"/>

  <!-- AO signál MQ-2 → R10k → junction → ESP32 GPIO 34 -->
  <!-- (1) AO pin -> R10k (horizontálne pri y=240) -->
  <line x1="250" y1="240" x2="285" y2="240" stroke="#1976d2" stroke-width="2.5"/>
  <!-- R10k rezistor horizontálne -->
  <rect x="285" y="230" width="70" height="20" fill="#fff8dc" stroke="#000" stroke-width="1.2"/>
  <text x="320" y="244" text-anchor="middle" font-size="11">10 kΩ</text>
  <!-- R10k -> junction -->
  <line x1="355" y1="240" x2="395" y2="240" stroke="#1976d2" stroke-width="2.5"/>
  <!-- R18k zvisle smerom dole od junction (390, 240) -->
  <line x1="395" y1="240" x2="395" y2="260" stroke="#000" stroke-width="2.5"/>
  <rect x="385" y="260" width="20" height="60" fill="#fff8dc" stroke="#000" stroke-width="1.2"/>
  <text x="415" y="295" text-anchor="start" font-size="11">18 kΩ</text>
  <line x1="395" y1="320" x2="395" y2="345" stroke="#000" stroke-width="3"/>
  <use href="#gnd" x="395" y="345"/>
  <!-- Junction dot pri (395, 240) — 3-cestný spoj (AO do junction, R18k dole, signál doprava do ESP32) -->
  <circle cx="395" cy="240" r="6" fill="#000"/>
  <!-- Signál pokračuje doprava z junction do ESP32 GPIO 34 -->
  <line x1="395" y1="240" x2="800" y2="240" stroke="#1976d2" stroke-width="2.5"/>

  <!-- ================================================================= -->
  <!-- MQ-4 SENZOR (zemný plyn) — vľavo stred                             -->
  <!-- ================================================================= -->
  <g id="mq4">
    <rect x="100" y="400" width="150" height="80" fill="#e3f2fd" stroke="#000" stroke-width="1.5"/>
    <text x="175" y="432" text-anchor="middle" font-size="15" font-weight="bold">MQ-4</text>
    <text x="175" y="452" text-anchor="middle" font-size="12">(zemný plyn)</text>
    <text x="175" y="395" text-anchor="middle" font-size="10" fill="#444">VCC</text>
    <text x="175" y="495" text-anchor="middle" font-size="10" fill="#444">GND</text>
    <text x="265" y="443" text-anchor="start" font-size="10" fill="#444">AO</text>
  </g>
  <!-- VCC MQ-4 -->
  <line x1="175" y1="400" x2="175" y2="370" stroke="#d32f2f" stroke-width="3"/>
  <use href="#vcc" x="175" y="370"/>
  <!-- GND MQ-4 -->
  <line x1="175" y1="480" x2="175" y2="510" stroke="#000" stroke-width="3"/>
  <use href="#gnd" x="175" y="510"/>
  <!-- AO → R10k → junction → ESP32 GPIO 35 -->
  <line x1="250" y1="440" x2="285" y2="440" stroke="#1976d2" stroke-width="2.5"/>
  <rect x="285" y="430" width="70" height="20" fill="#fff8dc" stroke="#000" stroke-width="1.2"/>
  <text x="320" y="444" text-anchor="middle" font-size="11">10 kΩ</text>
  <line x1="355" y1="440" x2="395" y2="440" stroke="#1976d2" stroke-width="2.5"/>
  <line x1="395" y1="440" x2="395" y2="460" stroke="#000" stroke-width="2.5"/>
  <rect x="385" y="460" width="20" height="60" fill="#fff8dc" stroke="#000" stroke-width="1.2"/>
  <text x="415" y="495" text-anchor="start" font-size="11">18 kΩ</text>
  <line x1="395" y1="520" x2="395" y2="545" stroke="#000" stroke-width="3"/>
  <use href="#gnd" x="395" y="545"/>
  <circle cx="395" cy="440" r="6" fill="#000"/>
  <line x1="395" y1="440" x2="800" y2="440" stroke="#1976d2" stroke-width="2.5"/>

  <!-- ================================================================= -->
  <!-- MQ-5 SENZOR (LPG) — vľavo dole                                     -->
  <!-- ================================================================= -->
  <g id="mq5">
    <rect x="100" y="600" width="150" height="80" fill="#e3f2fd" stroke="#000" stroke-width="1.5"/>
    <text x="175" y="632" text-anchor="middle" font-size="15" font-weight="bold">MQ-5</text>
    <text x="175" y="652" text-anchor="middle" font-size="12">(LPG)</text>
    <text x="175" y="595" text-anchor="middle" font-size="10" fill="#444">VCC</text>
    <text x="175" y="695" text-anchor="middle" font-size="10" fill="#444">GND</text>
    <text x="265" y="643" text-anchor="start" font-size="10" fill="#444">AO</text>
  </g>
  <line x1="175" y1="600" x2="175" y2="570" stroke="#d32f2f" stroke-width="3"/>
  <use href="#vcc" x="175" y="570"/>
  <line x1="175" y1="680" x2="175" y2="710" stroke="#000" stroke-width="3"/>
  <use href="#gnd" x="175" y="710"/>
  <line x1="250" y1="640" x2="285" y2="640" stroke="#1976d2" stroke-width="2.5"/>
  <rect x="285" y="630" width="70" height="20" fill="#fff8dc" stroke="#000" stroke-width="1.2"/>
  <text x="320" y="644" text-anchor="middle" font-size="11">10 kΩ</text>
  <line x1="355" y1="640" x2="395" y2="640" stroke="#1976d2" stroke-width="2.5"/>
  <line x1="395" y1="640" x2="395" y2="660" stroke="#000" stroke-width="2.5"/>
  <rect x="385" y="660" width="20" height="60" fill="#fff8dc" stroke="#000" stroke-width="1.2"/>
  <text x="415" y="695" text-anchor="start" font-size="11">18 kΩ</text>
  <line x1="395" y1="720" x2="395" y2="745" stroke="#000" stroke-width="3"/>
  <use href="#gnd" x="395" y="745"/>
  <circle cx="395" cy="640" r="6" fill="#000"/>
  <line x1="395" y1="640" x2="800" y2="640" stroke="#1976d2" stroke-width="2.5"/>

  <!-- ================================================================= -->
  <!-- TLAČIDLO — vľavo dolu                                              -->
  <!-- ================================================================= -->
  <g id="button">
    <rect x="100" y="780" width="120" height="40" fill="#fff3e0" stroke="#000" stroke-width="1.5"/>
    <text x="160" y="805" text-anchor="middle" font-size="13" font-weight="bold">TLAČIDLO</text>
    <!-- Kontakty na bokoch (pin 1 vľavo, pin 2 vpravo) -->
    <circle cx="100" cy="800" r="3" fill="#000"/>
    <circle cx="220" cy="800" r="3" fill="#000"/>
  </g>
  <!-- Pin 1 (vľavo) → GND -->
  <line x1="100" y1="800" x2="70" y2="800" stroke="#000" stroke-width="3"/>
  <line x1="70" y1="800" x2="70" y2="830" stroke="#000" stroke-width="3"/>
  <use href="#gnd" x="70" y="830"/>
  <!-- Pin 2 (vpravo) → ESP32 GPIO 14 -->
  <line x1="220" y1="800" x2="800" y2="800" stroke="#1976d2" stroke-width="2.5"/>

  <!-- ================================================================= -->
  <!-- ESP32 NodeMCU-32S — uprostred                                      -->
  <!-- ================================================================= -->
  <g id="esp32">
    <rect x="800" y="200" width="400" height="680" fill="#f3e5f5" stroke="#000" stroke-width="2" rx="6"/>
    <text x="1000" y="250" text-anchor="middle" font-size="22" font-weight="bold">ESP32</text>
    <text x="1000" y="275" text-anchor="middle" font-size="14">NodeMCU-32S</text>
    <text x="1000" y="295" text-anchor="middle" font-size="11" fill="#666">WROOM-32 · CP2102 USB-C</text>
    <!-- Označenie pinov zvnútra krabice -->
    <text x="815" y="244" text-anchor="start" font-size="12" fill="#333">GPIO 34 ◀</text>
    <text x="815" y="444" text-anchor="start" font-size="12" fill="#333">GPIO 35 ◀</text>
    <text x="815" y="644" text-anchor="start" font-size="12" fill="#333">GPIO 32 ◀</text>
    <text x="815" y="804" text-anchor="start" font-size="12" fill="#333">GPIO 14 ◀</text>
    <text x="1185" y="304" text-anchor="end" font-size="12" fill="#333">▶ GPIO 26</text>
    <text x="1185" y="504" text-anchor="end" font-size="12" fill="#333">▶ GPIO 25</text>
    <text x="1000" y="218" text-anchor="middle" font-size="12" fill="#333">VIN (5V)</text>
    <text x="1000" y="872" text-anchor="middle" font-size="12" fill="#333">GND</text>
    <!-- Pin dots na hraniciach -->
    <circle cx="800" cy="240" r="4" fill="#000"/>
    <circle cx="800" cy="440" r="4" fill="#000"/>
    <circle cx="800" cy="640" r="4" fill="#000"/>
    <circle cx="800" cy="800" r="4" fill="#000"/>
    <circle cx="1200" cy="300" r="4" fill="#000"/>
    <circle cx="1200" cy="500" r="4" fill="#000"/>
    <circle cx="1000" cy="200" r="4" fill="#000"/>
    <circle cx="1000" cy="880" r="4" fill="#000"/>
    <!-- Poznámka v bloku -->
    <text x="1000" y="400" text-anchor="middle" font-size="11" fill="#555" font-style="italic">(napájanie cez USB-C,</text>
    <text x="1000" y="415" text-anchor="middle" font-size="11" fill="#555" font-style="italic">5V zdroj 2 A)</text>
  </g>
  <!-- ESP32 VIN → +5V -->
  <line x1="1000" y1="200" x2="1000" y2="170" stroke="#d32f2f" stroke-width="3"/>
  <use href="#vcc" x="1000" y="170"/>
  <!-- ESP32 GND → GND -->
  <line x1="1000" y1="880" x2="1000" y2="910" stroke="#000" stroke-width="3"/>
  <use href="#gnd" x="1000" y="910"/>

  <!-- ================================================================= -->
  <!-- LED OBVOD — vpravo hore                                            -->
  <!-- ================================================================= -->
  <!-- Z GPIO 26 doprava cez R330 na LED → GND -->
  <line x1="1200" y1="300" x2="1240" y2="300" stroke="#1976d2" stroke-width="2.5"/>
  <!-- R330 horizontálne -->
  <rect x="1240" y="290" width="70" height="20" fill="#fff8dc" stroke="#000" stroke-width="1.2"/>
  <text x="1275" y="304" text-anchor="middle" font-size="11">330 Ω</text>
  <line x1="1310" y1="300" x2="1340" y2="300" stroke="#000" stroke-width="2.5"/>
  <!-- LED (červená, 5 mm) -->
  <g id="led">
    <rect x="1340" y="285" width="60" height="30" fill="#ffebee" stroke="#000" stroke-width="1.2"/>
    <text x="1370" y="305" text-anchor="middle" font-size="12" font-weight="bold">LED</text>
    <text x="1344" y="298" text-anchor="start" font-size="9" fill="#666">+</text>
    <text x="1392" y="298" text-anchor="end" font-size="9" fill="#666">−</text>
  </g>
  <!-- LED katóda → GND -->
  <line x1="1400" y1="300" x2="1430" y2="300" stroke="#000" stroke-width="3"/>
  <line x1="1430" y1="300" x2="1430" y2="330" stroke="#000" stroke-width="3"/>
  <use href="#gnd" x="1430" y="330"/>

  <!-- ================================================================= -->
  <!-- REPRODUKTOR + 1N4148 + R47 + BC547 — vpravo dolu                   -->
  <!-- ================================================================= -->

  <!-- +5V štítok spoločný pre SPK aj diódu (hore) -->
  <line x1="1500" y1="380" x2="1500" y2="350" stroke="#d32f2f" stroke-width="3"/>
  <use href="#vcc" x="1500" y="350"/>
  <!-- Horný bus: spája SPK top a diódu cathode -->
  <line x1="1460" y1="380" x2="1550" y2="380" stroke="#d32f2f" stroke-width="3"/>
  <!-- Junction dot na stredovom odbočení k +5V -->
  <circle cx="1500" cy="380" r="6" fill="#000"/>

  <!-- REPRODUKTOR vertikálne -->
  <g id="speaker">
    <rect x="1440" y="400" width="40" height="100" fill="#e8f5e9" stroke="#000" stroke-width="1.5"/>
    <text x="1460" y="438" text-anchor="middle" font-size="11" font-weight="bold">SPK</text>
    <text x="1460" y="456" text-anchor="middle" font-size="10">8 Ω</text>
    <text x="1460" y="474" text-anchor="middle" font-size="10">0,5W</text>
    <!-- Horný pin (+) -->
    <text x="1484" y="410" text-anchor="start" font-size="10" fill="#444">+</text>
    <!-- Dolný pin (−) -->
    <text x="1484" y="498" text-anchor="start" font-size="10" fill="#444">−</text>
  </g>
  <line x1="1460" y1="400" x2="1460" y2="380" stroke="#d32f2f" stroke-width="3"/>
  <line x1="1460" y1="500" x2="1460" y2="540" stroke="#000" stroke-width="2.5"/>

  <!-- 1N4148 FREEWHEEL DIÓDA vertikálne -->
  <g id="diode">
    <rect x="1530" y="410" width="40" height="80" fill="#fff3e0" stroke="#000" stroke-width="1.5"/>
    <text x="1550" y="438" text-anchor="middle" font-size="10" font-weight="bold">1N</text>
    <text x="1550" y="454" text-anchor="middle" font-size="10" font-weight="bold">4148</text>
    <!-- Šípka diódy (anóda dole, katóda hore) -->
    <polygon points="1540,472 1560,472 1550,462" fill="#000"/>
    <line x1="1540" y1="462" x2="1560" y2="462" stroke="#000" stroke-width="2"/>
    <!-- Označenie katódy (hore) a anódy (dole) -->
    <text x="1578" y="415" text-anchor="start" font-size="10" fill="#444">K (−)</text>
    <text x="1578" y="495" text-anchor="start" font-size="10" fill="#444">A (+)</text>
  </g>
  <line x1="1550" y1="410" x2="1550" y2="380" stroke="#d32f2f" stroke-width="3"/>
  <line x1="1550" y1="490" x2="1550" y2="540" stroke="#000" stroke-width="2.5"/>

  <!-- Dolný bus: spája SPK (−) a diódu anódu -->
  <line x1="1460" y1="540" x2="1550" y2="540" stroke="#000" stroke-width="2.5"/>
  <!-- Junction dot v strede dolného busu kde odbočuje smerom dole do R47 -->
  <circle cx="1500" cy="540" r="6" fill="#000"/>
  <!-- Odbočka dole do R47 -->
  <line x1="1500" y1="540" x2="1500" y2="560" stroke="#000" stroke-width="2.5"/>

  <!-- R47 vertikálne -->
  <rect x="1490" y="560" width="20" height="60" fill="#fff8dc" stroke="#000" stroke-width="1.2"/>
  <text x="1520" y="595" text-anchor="start" font-size="11">47 Ω</text>
  <text x="1520" y="610" text-anchor="start" font-size="9" fill="#d32f2f">(NOVÉ v2.1)</text>
  <line x1="1500" y1="620" x2="1500" y2="640" stroke="#000" stroke-width="2.5"/>

  <!-- BC547 tranzistor -->
  <g id="bc547">
    <circle cx="1500" cy="680" r="32" fill="#fff" stroke="#000" stroke-width="1.5"/>
    <!-- Vertikálna čiara = báza -->
    <line x1="1492" y1="668" x2="1492" y2="692" stroke="#000" stroke-width="2.5"/>
    <!-- Báza lead (doľava) -->
    <line x1="1468" y1="680" x2="1492" y2="680" stroke="#000" stroke-width="2"/>
    <!-- Kolektor (z bázy hore-doprava) -->
    <line x1="1492" y1="670" x2="1508" y2="655" stroke="#000" stroke-width="2"/>
    <line x1="1508" y1="655" x2="1508" y2="648" stroke="#000" stroke-width="2"/>
    <!-- Emitor (z bázy dole-doprava, s NPN šípkou ven) -->
    <line x1="1492" y1="690" x2="1508" y2="705" stroke="#000" stroke-width="2"/>
    <polygon points="1508,705 1500,700 1503,708" fill="#000"/>
    <line x1="1508" y1="705" x2="1508" y2="712" stroke="#000" stroke-width="2"/>
    <!-- Label -->
    <text x="1542" y="670" text-anchor="start" font-size="12" font-weight="bold">BC547</text>
    <text x="1542" y="684" text-anchor="start" font-size="9" fill="#666">(NPN)</text>
    <!-- Pin označenia -->
    <text x="1510" y="647" text-anchor="start" font-size="9" fill="#444">C</text>
    <text x="1464" y="675" text-anchor="end" font-size="9" fill="#444">B</text>
    <text x="1510" y="720" text-anchor="start" font-size="9" fill="#444">E</text>
  </g>
  <!-- Kolektor pripojenie: od R47 dole (1500,640) → do C (1508,648) -->
  <line x1="1500" y1="640" x2="1508" y2="640" stroke="#000" stroke-width="2.5"/>
  <line x1="1508" y1="640" x2="1508" y2="648" stroke="#000" stroke-width="2"/>
  <!-- Emitor → GND -->
  <line x1="1508" y1="712" x2="1508" y2="735" stroke="#000" stroke-width="3"/>
  <use href="#gnd" x="1508" y="735"/>

  <!-- Báza → R1k → GPIO 25 -->
  <line x1="1468" y1="680" x2="1440" y2="680" stroke="#1976d2" stroke-width="2.5"/>
  <rect x="1370" y="670" width="70" height="20" fill="#fff8dc" stroke="#000" stroke-width="1.2"/>
  <text x="1405" y="684" text-anchor="middle" font-size="11">1 kΩ</text>
  <line x1="1370" y1="680" x2="1340" y2="680" stroke="#1976d2" stroke-width="2.5"/>
  <!-- Zákruta cez unikátny x=1340 -->
  <line x1="1340" y1="680" x2="1340" y2="500" stroke="#1976d2" stroke-width="2.5"/>
  <line x1="1340" y1="500" x2="1200" y2="500" stroke="#1976d2" stroke-width="2.5"/>

  <!-- ================================================================= -->
  <!-- POPISKY PRE ORIENTÁCIU NA BREADBOARDE (info pre amatéra)           -->
  <!-- ================================================================= -->
  <g transform="translate(40, 960)">
    <rect x="0" y="0" width="1720" height="110" fill="#fff9e6" stroke="#e0c97f" stroke-width="1"/>
    <text x="15" y="22" font-size="13" font-weight="bold" fill="#555">⚠️ Pre amatéra — ako to uviesť do praxe:</text>
    <text x="15" y="44" font-size="12" fill="#333">
      1. Najprv sprav dva spoločné pásy na breadboarde: jeden pre +5V (červené káble), druhý pre GND (čierne káble). Tam kde vidíš ČERVENÝ štítok +5V na schéme, spoj tie body spolu na +5V pás.
    </text>
    <text x="15" y="62" font-size="12" fill="#333">
      2. Tam kde vidíš ČIERNY trojuholník GND, spoj ten bod na GND pás.
    </text>
    <text x="15" y="80" font-size="12" fill="#333">
      3. MODRÉ čiary sú signálové káble (merania zo senzorov + ovládanie LED/reproduktora). Tieto vedú priamo tak, ako to ukazuje schéma — od súčiastky k ESP32 pinu.
    </text>
    <text x="15" y="98" font-size="12" fill="#333">
      4. KAŽDÝ PLNÝ ČIERNY KRÚŽOK na schéme = elektrický spoj. Ak tam kruh nie je a dva káble sa zdajú byť blízko, to sú dva ODDELENÉ káble (žiadne prekríženie tu schéma nemá).
    </text>
  </g>

</svg>
